<?xml version="1.0" encoding="utf-8"?>
<!-- Generator: Adobe Illustrator 27.9.0, SVG Export Plug-In . SVG Version: 6.00 Build 0)  -->
<svg version="1.1" id="Capa_1" xmlns="http://www.w3.org/2000/svg" xmlns:xlink="http://www.w3.org/1999/xlink" x="0px" y="0px"
	 viewBox="0 0 931.4 244.9" style="enable-background:new 0 0 931.4 244.9;" xml:space="preserve">
<style type="text/css">
	.st0{fill:#C3CBD8;}
	.st1{fill:#1C61E7;}
	.st2{fill:#333333;}
</style>
<g>
	<g>
		<path class="st2" d="M329.7,152.4c0.2,1.8,0.2,5.7,1.4,9.9c1.6,6.9,7.1,20.9,26.9,20.9c4.1,0,12.9-0.7,19.3-9.9
			c0.9-1.4,2.1-3.2,3.7-6.9h30.8c-0.5,1.6-1.4,5.5-3.4,9.6c-5.7,11.9-16.5,22-29.2,26.6c-9.2,3.4-19.1,3.7-22,3.7
			c-4.4,0-14.7-0.2-25.5-4.6c-23.2-9.6-34.7-33.1-34.4-57.2c0-34.4,23.2-62.7,59-62.7c5.7,0,20,0.7,33.3,10.3
			c25.7,18.8,24.3,51.9,24.3,60.2H329.7z M380.9,131c-0.2-1.8-0.7-7.1-3-12.2c-4.1-9-12.6-14.2-22-14.2c-9.9,0-18.6,5.5-23,14.5
			c-1.4,2.8-2.3,5.7-3,11.9H380.9z"/>
		<path class="st2" d="M504.2,112.9c-1.4-0.2-6-1.1-10.6-1.1c-4.8,0-16.1,0.9-23.7,12.6c-5.5,8.5-5.5,18.4-5.7,28v50.5h-32.1V85.3
			h30.5v21.6c2.5-4.8,9-18.6,25.7-23c1.8-0.5,5.3-1.4,10.3-1.4c2.3,0,4.8,0.5,5.5,0.5V112.9z"/>
		<path class="st2" d="M615.5,107.6L550.1,179h69.3v23.9H511.3v-23.7l65.9-70.3h-61.3V85.3h99.7V107.6z"/>
		<path class="st2" d="M713.1,202.9c-1.8-6-2.1-8-2.1-11.3c-6.4,6.2-17.9,14.7-38.8,14.7c-33.5,0-40.9-21.6-40.9-35.8
			c0-6.4,1.6-21.8,18.4-29.9c10.8-5.1,25.5-6.2,37-7.8c4.8-0.7,17.9-2.3,21.8-6c2.3-2.1,2.5-7.1,2.5-7.3
			c-0.2-13.1-10.1-16.1-21.1-16.1c-6,0-9.4,0.9-11.9,1.8c-9.9,3.7-10.6,13.1-11,16.3l-30.5-0.2c0.7-8.7,3-16.1,8.7-23
			c7.8-9.4,20.4-16.5,45.9-16.5c3,0,17.2,0.2,28.2,4.1c4.6,1.6,9.2,4.1,12.9,7.3c4.4,3.7,6.7,7.6,7.6,9.4c1.8,4.4,2.8,9.4,2.8,19.1
			c0,8-0.5,16.3-0.5,24.3c-0.2,8.5-0.5,16.8-0.5,25.3c0,16.8,0.9,23.9,4.4,31.5H713.1z M710.6,145.7c-1.1,0.7-2.3,1.4-3.4,1.8
			c-5.1,2.3-10.6,2.8-21.6,4.6c-0.2,0-8,1.4-11.9,3c-6,2.8-9.2,7.8-9.2,14.2c0,6.2,3.2,15.8,17.9,15.8c11.7,0,18.4-5.1,21.6-8.3
			c1.8-1.8,3.9-4.6,5.1-6.7c1.6-3.9,1.6-11.3,1.6-11.5V145.7z"/>
		<path class="st2" d="M831.4,202.4c-5.5,15.4-8.5,22.5-13.3,28.9c-11,14.2-25.3,13.5-31.7,13.5l-21.4-0.2V218h12.9
			c8,0,11.5-1.1,14.5-4.1c2.1-1.8,4.1-4.6,4.1-10.6c0-3.4-0.9-6.2-1.8-9.4L753.3,85.3h34.9l26.9,83.6l26.2-83.6h33.5L831.4,202.4z"
			/>
		<path class="st2" d="M911.3,202.9h-36.7v-36.1h36.7V202.9z"/>
	</g>
	<g>
		<g>
			<path class="st1" d="M29.5,69.3c-5.9-4.2-10-14.8-9.3-24.8c0.7-10,5.2-16.6,12-18.6c7.6-2.2,15.5-2.4,23.3-3.4
				c0.8-0.1,1.7,0,2.5,0c0-0.2,0.1-0.4,0.1-0.5c-0.5-2.1-1.9-5-1.4-6.2c1.3-2.9,3.3-5.6,5.5-7.3c7.5-5.8,16-7.8,24.5-8.2
				c49.3-2.3,89.5,23.7,122,72.6c0.8,1.2,1.6,2.5,2.2,4.1c-15-12.6-30.3-24.1-47.4-30.7c-0.6-0.2-1.2-0.3-2.5-0.6
				c9,5,35.6,21.8,51.3,61.9c25.6,65.4-1.9,132.3-4,137.1c-0.3-19.6-2.7-51.2-14.1-86.3c-8.9-27.2-20.2-47-28.8-60
				c6.1,32.4,8.8,64.1,1.6,96c-0.4,0-0.7,0.1-1.1,0.1c-0.5-2.6-0.9-5.3-1.4-7.9c-6.4-33.7-20.6-60.5-40-82.6
				c-18.2-20.7-38.9-35.5-62-43.6C54.8,57.6,47,56,39,57.3C32.6,58.3,30.2,61.3,29.5,69.3z M76.8,19.1c7.9,6.3,15.7,6,23.6-0.3
				C92.3,15.2,84.5,14.2,76.8,19.1z"/>
			<path class="st1" d="M64.4,72.6c25,21.7,41.4,50.5,40.1,93.2c-0.8,26.6-15.8,51.7-34.8,58.7c-0.4,0.1-0.8,0.1-1.2,0.2
				C95.3,172.4,93.8,121.9,64.4,72.6z"/>
			<path class="st1" d="M110.7,229c9-13.4,11.3-29.1,11.4-45.5c0.2-23.3-3.4-45.5-12-65.9c-0.8-1.9-1.7-3.7-2.1-6.2
				c2.7,3,5.5,5.9,8.1,9.1c11.6,14.4,20,31.4,22.2,52.9c1.8,17.9-0.3,34.7-10.6,47.8C123.1,227,117.6,229.8,110.7,229z"/>
		</g>
		<path class="st1" d="M346.9,2.5c-15.3,1.3-42,6.2-70.4,27.4c-14.2,10.6-42.6,32.5-59.3,77.7c-23.3,63.2-3.9,118.6-3.7,118.9
			c0,0.1,0.1,0.1,0.1,0.1c0.4,0.2,1.1-1.6,1.2-1.3C237.9,124.9,281.6,52.7,346.9,2.5z"/>
	</g>
</g>
</svg>
